<svg xmlns="http://www.w3.org/2000/svg" viewBox="0 0 64 64">
  <rect width="64" height="64" rx="10" fill="#0d4d2d" />
  <path
    d="M16 36c0-10.5 7.2-19 16-19s16 8.5 16 19v6.5c0 2.5-2 4.5-4.5 4.5h-23c-2.5 0-4.5-2-4.5-4.5V36Z"
    fill="#fffaf0"
  />
  <path
    d="M22 20c-3-2.5-7-2.8-10-1.6 1.1 3.5 4 6.2 8.4 7.7M42 20c3-2.5 7-2.8 10-1.6-1.1 3.5-4 6.2-8.4 7.7"
    fill="#fffaf0"
  />
  <circle cx="26" cy="35" r="2.5" fill="#0d4d2d" />
  <circle cx="38" cy="35" r="2.5" fill="#0d4d2d" />
  <path d="M27 43c3.2 2 6.8 2 10 0" fill="none" stroke="#0d4d2d" stroke-width="3" stroke-linecap="round" />
</svg>
